<svg width="180" height="60" viewBox="0 0 180 60" xmlns="http://www.w3.org/2000/svg" fill="none">
  <!-- API Node -->
  <circle cx="30" cy="30" r="6" fill="#E0234E"></circle>
  <line x1="30" y1="30" x2="50" y2="15" stroke="#555" stroke-width="2"></line>
  <line x1="30" y1="30" x2="50" y2="45" stroke="#555" stroke-width="2"></line>
  <circle cx="50" cy="15" r="4" fill="#555"></circle>
  <circle cx="50" cy="45" r="4" fill="#555"></circle>
  
  <!-- Buildings -->
  <rect x="70" y="20" width="14" height="20" fill="#DDD" stroke="#555" stroke-width="1.5"></rect>
  <rect x="90" y="15" width="14" height="25" fill="#BBB" stroke="#555" stroke-width="1.5"></rect>
  
  <!-- Windows -->
  <rect x="73" y="23" width="3" height="3" fill="#555"></rect>
  <rect x="78" y="23" width="3" height="3" fill="#555"></rect>
  <rect x="73" y="28" width="3" height="3" fill="#555"></rect>
  <rect x="78" y="28" width="3" height="3" fill="#555"></rect>
  
  <rect x="93" y="18" width="3" height="3" fill="#444"></rect>
  <rect x="98" y="18" width="3" height="3" fill="#444"></rect>
  <rect x="93" y="23" width="3" height="3" fill="#444"></rect>
  <rect x="98" y="23" width="3" height="3" fill="#444"></rect>
  
  <!-- Text -->
  <text x="115" y="35" font-size="14" fill="#333" font-family="Arial, sans-serif">
    Registro API
  </text>
</svg>
